# xmcd CD database file
#
# Track frame offsets:
#	150
#	54867
#	86442
#	136202
#	184395
#	218560
#	245910
#
# Disc length: 4325 seconds
#
# Revision: 1
# Processed by: cddbd v1.5.1PL0 Copyright (c) Steve Scherf et al.
# Submitted via: CDex 1.51
#
DISCID=5d10e307
DTITLE=Freddie  Hubbard - Jazz Moods - Hot
DYEAR=1900
DGENRE=Jazz
TTITLE0=Red Clay
TTITLE1=Take It To The Ozone
TTITLE2=First Light
TTITLE3=The Intrepid Fox
TTITLE4=Sky Dive
TTITLE5=Theme From Kareem
TTITLE6=Straight Life
EXTD=
EXTT0=
EXTT1=
EXTT2=
EXTT3=
EXTT4=
EXTT5=
EXTT6=
PLAYORDER=
